# xmcd CD database file
#
# Track frame offsets:
#	150
#	21476
#	36569
#	60907
#	81731
#	97321
#	111451
#	128436
#	139084
#	148171
#	166074
#	182599
#
# Disc length: 2626 seconds
#
# Revision: 0
# Processed by: cddbd v1.5.2PL0 Copyright (c) Steve Scherf et al.
# Submitted via: CDex 1.51
#
DISCID=b10a400c
DTITLE=Stefan Patry Michel Delakian - Jazz n'spirituals
DYEAR=2000
DGENRE=Jazz
TTITLE0=Sometimes I feel like a motherless child
TTITLE1=Joshua fit the Battle of jericho
TTITLE2=Hymne à l'amour
TTITLE3=Summertime
TTITLE4=Go down, moses
TTITLE5=Valse pour zilko
TTITLE6=Morning my lord
TTITLE7=Just a closer walk with thee
TTITLE8=Notes à béné
TTITLE9=You look good to me
TTITLE10=Work song
TTITLE11=ave maria
EXTD=YEAR: 2000
EXTT0=
EXTT1=
EXTT2=
EXTT3=
EXTT4=
EXTT5=
EXTT6=
EXTT7=
EXTT8=
EXTT9=
EXTT10=
EXTT11=
PLAYORDER=
